<svg width="31" height="31" viewBox="0 0 31 31" fill="none" xmlns="http://www.w3.org/2000/svg">
<path d="M13.4184 0.122967C21.7982 -0.93753 29.4586 4.97825 30.5559 13.3574C31.6531 21.7365 25.7743 29.4269 17.4043 30.5618C8.98151 31.704 1.2359 25.7772 0.131749 17.3452C-0.972401 8.91329 4.9858 1.19016 13.4184 0.122967Z" fill="#003399"/>
<path d="M7.94299 8.02176C8.23815 8.11839 8.97276 8.63659 9.2839 8.83326C14.0209 11.826 18.6826 10.8783 22.9273 7.78876C19.0232 12.0229 19.3564 17.8337 22.4673 22.4088L22.4189 22.4589C22.2168 22.4491 21.0089 21.5411 20.449 21.2714C19.3802 20.7613 18.2424 20.4111 17.0717 20.2322C13.2739 19.6529 10.6896 20.7655 7.75781 22.9298C9.31974 21.1804 10.4228 18.5476 10.5984 16.2112C10.8122 13.2397 9.85966 10.3018 7.94299 8.02176Z" fill="#FEFEFE"/>
</svg>
