<svg width="102" height="22" viewBox="0 0 102 22" fill="none" xmlns="http://www.w3.org/2000/svg">
<path d="M50.2833 0.000292902L53.6865 0V6.9162C54.3349 6.01298 55.2024 5.69324 56.2715 5.56708C59.7753 5.15352 61.6007 7.27608 61.9502 10.5488C62.3232 7.37934 64.709 5.4817 67.8242 5.5199C69.385 5.53905 70.7773 5.89365 71.9153 7.04637C73.5781 8.73138 73.562 10.7978 73.5556 12.9924H65.3574C65.9046 15.1586 67.5284 15.3589 69.4875 14.9194C70.335 14.6253 70.7885 14.246 71.4169 13.629C71.9949 14.1706 72.692 14.793 73.2373 15.3519C73.2046 15.4053 73.1705 15.4581 73.1358 15.51C71.3632 18.1338 66.8386 18.6905 64.2599 16.9724C62.7265 15.951 62.2485 14.6542 61.9195 12.9278C61.9127 12.9848 61.9053 13.0416 61.897 13.0983C61.6749 14.6031 61.0593 16.1868 59.7895 17.0961C57.8147 18.5109 54.8987 18.1629 53.4502 16.1852C53.4532 16.6891 53.4468 17.1931 53.4312 17.6967H50.2238C50.3351 15.5384 50.2833 13.1384 50.2838 10.9648L50.2833 0.000292902ZM56.1197 8.03712C55.343 8.11634 54.7259 8.33189 54.2118 8.9591C53.9882 9.22847 53.831 9.5464 53.752 9.88747C53.5791 10.6345 53.6821 12.4255 53.7031 13.2523C53.7388 14.6736 55.034 15.3167 56.2828 15.3819C58.5124 15.2259 58.7076 12.7424 58.609 10.9936C58.5211 9.42492 57.8904 7.9956 56.1197 8.03712ZM65.3061 10.7053H68.2206H70.2086C70.1763 9.18817 69.3811 8.2641 67.7998 8.29829C67.6558 8.30239 67.5118 8.30952 67.3678 8.31973C66.0692 8.59697 65.5858 9.50151 65.3061 10.7053Z" fill="#003399"/>
<path d="M81.1667 5.54738C81.5641 5.51837 82.0493 5.49653 82.4355 5.59442L82.4848 5.73416C82.8304 5.79497 85.0942 5.76009 85.6088 5.75824C85.6507 6.68324 85.7249 7.29697 85.721 8.27072C86.3118 6.94661 87.024 6.26446 88.4208 5.78198C89.3947 5.44554 90.2681 5.54088 91.2674 5.5445L93.7289 5.54933C94.0609 6.62077 94.51 7.84695 94.8816 8.91785C95.3078 10.1727 95.7408 11.4251 96.1816 12.6748C96.9237 10.3046 97.6491 7.9294 98.359 5.54933H101.94C100.895 8.65864 99.6044 11.8391 98.5059 14.9446C98.1432 15.9703 97.2713 18.4966 96.7904 19.3396C96.3545 20.1166 95.7349 20.7745 94.9855 21.2556C93.4336 22.2329 91.7024 22.0935 90.0103 21.7102V19.0113C92.5167 19.7203 93.6874 18.8661 94.5774 16.5189C94.4056 16.0632 94.2015 15.6122 94.0219 15.1554L90.8969 7.41546L90.8964 8.23077C88.7225 8.11598 86.7135 9.31056 86.0403 11.4628C85.7704 12.3244 85.8568 13.6741 85.8577 14.6091L85.8607 17.6969H82.4589V8.22964C82.3315 8.2232 82.2041 8.22022 82.0767 8.22061C80.823 8.21323 79.6191 8.71403 78.7403 9.60885C77.224 11.124 77.4237 12.6146 77.4251 14.5476L77.4285 17.6969H74.0429L74.0434 10.3742C74.0439 9.015 74.0907 7.07448 73.9579 5.75824H77.2015C77.2767 6.64617 77.285 7.40403 77.286 8.28972C77.5062 7.83865 77.5657 7.60385 77.9001 7.19459C78.7618 6.13951 79.8602 5.69919 81.1667 5.54738Z" fill="#003399"/>
<path d="M27.0381 5.40998C30.5197 4.96936 33.7025 7.42728 34.1584 10.9087C34.6143 14.3901 32.1717 17.5853 28.6941 18.0569C25.1946 18.5315 21.9764 16.0689 21.5176 12.5656C21.0589 9.06223 23.5344 5.85338 27.0381 5.40998Z" fill="#003399"/>
<path d="M24.7632 8.69279C24.8858 8.73294 25.191 8.94824 25.3203 9.02995C27.2885 10.2734 29.2253 9.87964 30.9889 8.59598C29.3668 10.3552 29.5053 12.7695 30.7978 14.6704L30.7777 14.6912C30.6937 14.6872 30.1919 14.3099 29.9592 14.1978C29.5152 13.9859 29.0424 13.8404 28.556 13.7661C26.9781 13.5254 25.9043 13.9876 24.6862 14.8869C25.3352 14.16 25.7935 13.0661 25.8664 12.0954C25.9553 10.8608 25.5595 9.64011 24.7632 8.69279Z" fill="#FEFEFE"/>
<path d="M33.7363 5.7582L37.2369 5.75815C37.6731 7.98919 38.128 10.3809 38.6029 12.5907C39.2202 10.3129 39.906 8.02851 40.5094 5.75815H43.463C43.5653 6.2227 43.8373 7.06077 43.9724 7.55223L45.3593 12.5465C45.539 11.9953 45.7748 10.5864 45.8945 9.96888L46.7408 5.75815H50.254L48.8782 11.1326C48.7137 11.5609 48.4081 12.9155 48.2783 13.4284L47.1785 17.6968H44.204L41.9864 9.4209L39.7775 17.6968H36.7912C35.8127 13.7375 34.662 9.70308 33.7363 5.7582Z" fill="#003399"/>
<path d="M16.4431 5.54704C17.5254 5.38342 18.9685 5.73978 19.7286 6.55342C21.3774 8.3185 21.0867 11.154 21.086 13.3963L21.0835 17.6968H17.6943L17.6966 13.0489C17.6967 12.021 17.7806 10.5826 17.5406 9.61471C17.0406 7.59888 14.4288 8.01688 13.5205 9.55649C13.0147 10.3823 13.1364 12.2447 13.1366 13.2435L13.14 17.6968H9.75278L9.75361 10.8263C9.75356 9.14733 9.78519 7.42924 9.65363 5.7581L12.813 5.75824C12.9437 6.5482 12.9773 7.14487 12.9853 7.94513C13.5464 6.46043 14.93 5.72195 16.4431 5.54704Z" fill="#003399"/>
<path d="M4.17683 5.54814C6.12663 5.34954 7.97275 5.95388 9.18982 7.54063C8.53305 8.01993 7.87887 8.5027 7.22722 8.9889C6.07967 7.67001 2.9195 7.62635 3.84744 9.38277C5.12441 10.369 7.44276 10.6175 8.71041 11.8773C9.6872 12.8481 9.82331 14.1621 9.32988 15.3914C8.60428 17.1992 6.55869 17.9002 4.7673 17.9527C4.24908 17.9739 3.73019 17.9324 3.22188 17.8293C1.59902 17.4964 0.893574 16.9591 0 15.6069C0.660338 15.1165 1.42648 14.6117 2.11299 14.1495C2.49762 14.6445 2.81169 14.9002 3.3703 15.1763C4.15684 15.5909 5.38706 15.5775 5.97353 14.816C6.86078 13.6639 5.1911 13.184 4.44836 12.8656C2.80739 12.1622 0.516706 11.3459 0.318493 9.28118C0.084188 6.84055 2.03568 5.763 4.17683 5.54814Z" fill="#003399"/>
<path d="M98.0612 0H98.9253C99.2919 1.02137 99.6493 2.04617 99.9973 3.07419C100.377 2.07103 100.726 1.01654 101.073 0H101.97V3.99861L101.148 3.99866V3.35494L101.147 1.63525C100.864 2.3195 100.558 3.28172 100.31 3.9966L99.7171 3.9987C99.5277 3.47226 99.0922 2.16662 98.8706 1.72165V3.99866H98.0612V0Z" fill="#003399"/>
<path d="M94.7083 4.88171e-05L97.9318 0V0.591207H96.7201V2.76881V3.99866H95.8936V0.591207H94.7107L94.7083 4.88171e-05Z" fill="#003399"/>
</svg>
